HIERARCHY
ROOT RootJoint
{
    OFFSET   0.000000   0.000000   0.000000
    CHANNELS 6 Xposition Yposition Zposition Xrotation Yrotation Zrotation
    JOINT lHip
    {
        OFFSET   0.100000  -0.051395   0.000000
        CHANNELS 3 Xrotation Yrotation Zrotation
        JOINT lKnee
        {
            OFFSET   0.000000  -0.410000   0.000000
            CHANNELS 3 Xrotation Yrotation Zrotation
            JOINT lAnkle
            {
                OFFSET   0.000000  -0.390000   0.000000
                CHANNELS 3 Xrotation Yrotation Zrotation
                JOINT lToeJoint
                {
                    OFFSET   0.000000  -0.050000   0.130000
                    CHANNELS 3 Xrotation Yrotation Zrotation
                    End Site
                    {
                        OFFSET   0.010000   0.002000   0.060000
                    }
                }
            }
        }
    }
    JOINT rHip
    {
        OFFSET  -0.100000  -0.051395   0.000000
        CHANNELS 3 Xrotation Yrotation Zrotation
        JOINT rKnee
        {
            OFFSET   0.000000  -0.410000   0.000000
            CHANNELS 3 Xrotation Yrotation Zrotation
            JOINT rAnkle
            {
                OFFSET   0.000000  -0.390000   0.000000
                CHANNELS 3 Xrotation Yrotation Zrotation
                JOINT rToeJoint
                {
                    OFFSET   0.000000  -0.050000   0.130000
                    CHANNELS 3 Xrotation Yrotation Zrotation
                    End Site
                    {
                        OFFSET  -0.010000   0.002000   0.060000
                    }
                }
            }
        }
    }
    JOINT pelvis_lowerback
    {
        OFFSET   0.000000   0.093605   0.000000
        CHANNELS 3 Xrotation Yrotation Zrotation
        JOINT lowerback_torso
        {
            OFFSET   0.000000   0.100000   0.000000
            CHANNELS 3 Xrotation Yrotation Zrotation
            JOINT torso_head
            {
                OFFSET   0.000000   0.282350   0.000000
                CHANNELS 3 Xrotation Yrotation Zrotation
                End Site
                {
                    OFFSET   0.000000   0.192650   0.000000
                }
            }
            JOINT lTorso_Clavicle
            {
                OFFSET   0.001000   0.157500   0.000000
                CHANNELS 3 Xrotation Yrotation Zrotation
                JOINT lShoulder
                {
                    OFFSET   0.117647   0.000000   0.000000
                    CHANNELS 3 Xrotation Yrotation Zrotation
                    JOINT lElbow
                    {
                        OFFSET   0.245000   0.000000   0.000000
                        CHANNELS 3 Xrotation Yrotation Zrotation
                        JOINT lWrist
                        {
                            OFFSET   0.240000   0.000000   0.000000
                            CHANNELS 3 Xrotation Yrotation Zrotation
                            End Site
                            {
                                OFFSET   0.116353  -0.002500   0.000000
                            }
                        }
                    }
                }
            }
            JOINT rTorso_Clavicle
            {
                OFFSET  -0.001000   0.157500   0.000000
                CHANNELS 3 Xrotation Yrotation Zrotation
                JOINT rShoulder
                {
                    OFFSET  -0.117647   0.000000   0.000000
                    CHANNELS 3 Xrotation Yrotation Zrotation
                    JOINT rElbow
                    {
                        OFFSET  -0.245000   0.000000   0.000000
                        CHANNELS 3 Xrotation Yrotation Zrotation
                        JOINT rWrist
                        {
                            OFFSET  -0.240000   0.000000   0.000000
                            CHANNELS 3 Xrotation Yrotation Zrotation
                            End Site
                            {
                                OFFSET  -0.116353  -0.002500   0.000000
                            }
                        }
                    }
                }
            }
        }
    }
}
MOTION
Frames: 12
Frame Time:   0.016667
 -1.657894   0.895263   5.393349 -38.054962  84.080571  35.680328 -24.026594  10.647142   4.561502  67.975315   4.015563   8.157021   8.991598   0.939971  -1.250836  -0.000006   0.000005  -0.000002  -3.040552 -10.705948   9.571367  12.326099  -2.793305  -5.808676  -4.486687  -1.737908  -2.716636  -0.000001   0.000005  -0.000001   1.791854   0.076376   0.624040   7.140178   0.379229   2.545803  14.166483   7.743757  -5.670409   0.114705  -0.712671 -17.473078   5.700481 -30.653570 -48.570160   2.218027 -46.774147  13.521405   8.798369  -1.221557   0.718419  -1.311763   2.221943  19.790775  19.304594  27.397454  45.568311  -0.519857  19.121344  -3.784646   3.493360   1.601005  -2.092835
 -1.638283   0.893689   5.395241 -38.535549  83.832491  35.808687 -26.046596  10.256346   4.386691  66.402190   4.867447   8.089617   7.244552   1.553802  -0.705558  -0.000007   0.000005  -0.000002  -1.352122 -11.137959   9.923739  12.307483  -2.418995  -5.880544  -5.500255  -1.493319  -2.356688   0.000000   0.000008  -0.000001   1.833123   0.145038   0.678694   7.296866   0.660693   2.760175  14.020809   7.863195  -5.784502   0.123408  -0.552149 -17.540860   6.704078 -30.831236 -48.438870   2.039434 -45.089039  13.168335   8.204247  -0.822820   0.293827  -1.316800   2.428558  19.671369  18.859468  27.700605  45.502939  -0.532339  19.565843  -3.923116   3.707553   1.686907  -2.224539
 -1.618040   0.891281   5.397298 -38.946905  83.565103  35.744975 -27.732121   9.850404   4.346422  63.888795   5.210097   7.985755   5.562094   1.840039   0.036520   0.000002   0.000005  -0.000001   0.412748 -11.838785  10.287962  12.385089  -1.881141  -5.813549  -6.566121  -1.112014  -2.063724   0.000000   0.000008  -0.000001   1.875855   0.221079   0.764311   7.456337   0.974423   3.097153  13.880963   7.987570  -5.930778   0.128838  -0.451128 -17.552831   7.714500 -31.057859 -48.407161   1.830803 -42.938522  12.718416   7.485758  -0.436154  -0.032047  -1.313491   2.592288  19.494420  18.316332  27.859159  45.494691  -0.557126  20.255488  -4.070774   3.872681   1.748181  -2.384319
 -1.597542   0.888669   5.399415 -39.258774  83.298877  35.564943 -29.253652   9.462093   4.331691  60.976756   5.400349   7.860566   3.998954   2.032639   0.604442   0.000007   0.000006  -0.000001   2.203644 -12.529104  10.648693  12.457197  -1.338275  -5.686824  -7.625628  -0.722110  -1.790122   0.000000   0.000010  -0.000001   1.914884   0.301285   0.854977   7.598921   1.305443   3.453391  13.746525   8.106893  -6.080069   0.133256  -0.370125 -17.570788   8.723357 -31.298683 -48.386123   1.629044 -40.622291  12.208865   6.696326  -0.067344  -0.316186  -1.308502   2.736807  19.318980  17.799314  27.975240  45.467856  -0.586217  21.038878  -4.220382   4.036618   1.811787  -2.559405
 -1.576274   0.885577   5.401707 -39.251714  83.044762  35.048127 -30.258158   9.147969   4.399526  56.848711   5.179527   7.614338   2.897874   2.057091   0.376488   0.000001   0.000005  -0.000001   4.040797 -13.101422  10.923620  12.470051  -0.841151  -5.373835  -8.633567  -0.337528  -1.587181   0.000001   0.000009  -0.000002   1.938810   0.395004   0.953613   7.677620   1.689858   3.840081  13.630586   8.203047  -6.229279   0.134961  -0.345394 -17.634991   9.716718 -31.577473 -48.380204   1.401640 -37.831613  11.440798   5.666658   0.223983  -0.485731  -1.301648   2.821671  19.172705  17.428280  27.979745  45.339010  -0.632093  22.099051  -4.373098   4.215076   1.895600  -2.784140
 -1.554854   0.882498   5.404030 -39.170805  82.794096  34.498309 -31.123678   8.912386   4.433523  52.441203   4.965122   7.317692   1.988072   2.090899   0.204001  -0.000003   0.000005  -0.000001   5.883474 -13.573593  11.182864  12.430492  -0.393362  -5.067301  -9.602667   0.004283  -1.372443   0.000001   0.000008  -0.000002   1.957650   0.489567   1.043086   7.734759   2.076639   4.189941  13.519704   8.303542  -6.370732   0.136653  -0.323516 -17.720079  10.698943 -31.836391 -48.370447   1.205215 -34.962539  10.621638   4.616195   0.513847  -0.658716  -1.296265   2.901699  19.049482  17.118949  27.980867  45.173298  -0.678174  23.183878  -4.529243   4.415780   1.996161  -3.030149
 -1.532830   0.879474   5.406468 -38.750154  82.556808  33.772593 -31.437737   8.995297   4.352745  46.914265   4.737102   6.860807   1.843035   2.146308   0.251653   0.000000   0.000005  -0.000001   7.723219 -13.674701  11.311601  12.190326  -0.143851  -4.785444 -10.412069   0.186036  -1.133205  -0.000002   0.000005  -0.000001   1.956669   0.587355   1.096048   7.714102   2.470954   4.394198  13.428365   8.420429  -6.481636   0.138214  -0.313046 -17.888706  11.626847 -32.016222 -48.363807   0.989216 -31.785080   9.485217   3.480097   0.789462  -0.861114  -1.297529   2.962446  19.018542  17.056393  27.965988  44.860026  -0.732871  24.367015  -4.698361   4.704863   2.165234  -3.360807
 -1.510813   0.876563   5.408884 -38.307124  82.332518  33.090782 -31.614562   9.207322   4.221902  41.302936   4.488169   6.384667   1.934636   2.188676   0.159004   0.000002   0.000005  -0.000001   9.528738 -13.701774  11.419829  11.917084   0.032975  -4.577326 -11.122225   0.290765  -0.843853  -0.000004   0.000004  -0.000001   1.950965   0.679775   1.133173   7.675850   2.841917   4.535966  13.334124   8.558462  -6.579848   0.139798  -0.302910 -18.058319  12.503511 -32.120117 -48.410805   0.816090 -28.574928   8.314367   2.429616   1.107476  -1.140870  -1.300409   3.025370  19.004549  17.027492  27.964211  44.539756  -0.784158  25.506696  -4.869546   5.026145   2.346516  -3.707999
 -1.488812   0.873936   5.411245 -37.750586  82.141580  32.461340 -31.446673   9.740718   3.963684  35.480466   4.123385   5.879041   2.617984   2.195299  -0.284767   0.000002   0.000005  -0.000001  11.245744 -13.551557  11.466630  11.563776   0.030541  -4.555796 -11.582253   0.208097  -0.435105  -0.000004   0.000005  -0.000001   1.933646   0.758774   1.130715   7.596678   3.154678   4.521346  13.232309   8.749062  -6.646461   0.141391  -0.293607 -18.230400  13.247880 -32.035748 -48.600020   0.639835 -25.286850   6.982976   1.593441   1.527516  -1.621890  -1.307421   3.093734  19.032931  17.083047  27.994357  44.201857  -0.832084  26.537513  -5.045466   5.426741   2.560169  -4.095623
 -1.466863   0.871256   5.413612 -37.313079  81.971312  31.962657 -31.168851  10.439747   3.679871  29.840645   3.758486   5.374594   3.327057   2.165922  -0.718632   0.000002   0.000005  -0.000001  12.895420 -13.422486  11.527118  11.321742   0.039287  -4.631298 -11.937374   0.098946   0.046808  -0.000004   0.000006  -0.000002   1.914342   0.828304   1.123358   7.511414   3.429049   4.488239  13.126453   8.960827  -6.700836   0.142765  -0.286190 -18.382043  13.935983 -31.859953 -48.878256   0.518221 -22.019891   5.676622   0.914007   2.015356  -2.215139  -1.314390   3.163176  19.059619  17.131980  28.029551  43.889674  -0.875265  27.496565  -5.213658   5.840406   2.764585  -4.467799
 -1.445118   0.868254   5.416033 -37.309149  81.873028  31.878133 -30.593810  11.674149   3.344939  25.017577   3.287262   4.981395   3.901935   2.026483  -0.971570   0.000001   0.000005  -0.000001  14.315918 -13.449712  11.685274  11.557192   0.163337  -5.019978 -11.974612  -0.031351   0.776519  -0.000001   0.000004  -0.000001   1.891699   0.865324   1.112161   7.417536   3.573017   4.442443  13.006940   9.235901  -6.719617   0.143173  -0.285976 -18.450949  14.455204 -31.388996 -49.452070   0.377518 -18.876273   4.411056   0.770915   2.711999  -3.195417  -1.319403   3.234773  19.062543  17.119910  28.073366  43.687864  -0.909700  28.211739  -5.347183   6.270109   2.926942  -4.757499
 -1.423747   0.865464   5.418274 -37.512935  81.793924  32.078343 -29.998889  13.002262   2.925281  20.678524   2.707686   4.596484   4.639547   1.765515  -1.081575   0.000000   0.000005  -0.000001  15.660329 -13.544083  11.768146  11.882069   0.316441  -5.448500 -11.926169  -0.149114   1.514547  -0.000000   0.000002  -0.000001   1.874154   0.891948   1.085456   7.347348   3.675152   4.335090  12.891754   9.512546  -6.729624   0.143463  -0.286801 -18.510737  14.946115 -30.872383 -50.079226   0.293731 -15.804889   3.220633   0.775042   3.452508  -4.260000  -1.323684   3.299952  19.062129  17.076949  28.113514  43.507045  -0.940447  28.866264  -5.466037   6.677956   3.063966  -5.009785
